<mxfile host="app.diagrams.net" agent="Mozilla/5.0 (Windows NT 10.0; Win64; x64) AppleWebKit/537.36 (KHTML, like Gecko) Chrome/140.0.0.0 Safari/537.36" version="28.2.5">
  <diagram name="Página-1" id="SLYy8sRKPHmXYSQwSIdG">
    <mxGraphModel dx="3318" dy="2400" grid="1" gridSize="10" guides="1" tooltips="1" connect="1" arrows="1" fold="1" page="1" pageScale="1" pageWidth="827" pageHeight="1169" math="0" shadow="0">
      <root>
        <mxCell id="0" />
        <mxCell id="1" parent="0" />
        <mxCell id="vPRq9dus3xB_njKvOfY7-37" style="rounded=0;orthogonalLoop=1;jettySize=auto;html=1;exitX=0;exitY=0.5;exitDx=0;exitDy=0;entryX=1;entryY=0.5;entryDx=0;entryDy=0;endArrow=none;endFill=0;fontSize=11;" edge="1" parent="1" source="vPRq9dus3xB_njKvOfY7-1" target="vPRq9dus3xB_njKvOfY7-43">
          <mxGeometry relative="1" as="geometry">
            <mxPoint x="410" y="220" as="targetPoint" />
          </mxGeometry>
        </mxCell>
        <mxCell id="vPRq9dus3xB_njKvOfY7-1" value="Livro" style="rounded=0;whiteSpace=wrap;html=1;shadow=0;fontSize=11;" vertex="1" parent="1">
          <mxGeometry x="577" y="128" width="120" height="60" as="geometry" />
        </mxCell>
        <mxCell id="vPRq9dus3xB_njKvOfY7-9" style="rounded=0;orthogonalLoop=1;jettySize=auto;html=1;exitX=0.5;exitY=1;exitDx=0;exitDy=0;entryX=0.5;entryY=0;entryDx=0;entryDy=0;endArrow=none;endFill=0;fontSize=11;" edge="1" parent="1" source="vPRq9dus3xB_njKvOfY7-2" target="vPRq9dus3xB_njKvOfY7-1">
          <mxGeometry relative="1" as="geometry" />
        </mxCell>
        <mxCell id="vPRq9dus3xB_njKvOfY7-2" value="&lt;u&gt;&lt;b&gt;ISBN&lt;/b&gt;&lt;/u&gt;" style="ellipse;whiteSpace=wrap;html=1;fontSize=11;" vertex="1" parent="1">
          <mxGeometry x="467" y="58" width="80" height="30" as="geometry" />
        </mxCell>
        <mxCell id="vPRq9dus3xB_njKvOfY7-11" style="rounded=0;orthogonalLoop=1;jettySize=auto;html=1;endArrow=none;endFill=0;fontSize=11;" edge="1" parent="1" source="vPRq9dus3xB_njKvOfY7-4" target="vPRq9dus3xB_njKvOfY7-1">
          <mxGeometry relative="1" as="geometry" />
        </mxCell>
        <mxCell id="vPRq9dus3xB_njKvOfY7-4" value="Autor" style="ellipse;whiteSpace=wrap;html=1;fontSize=11;" vertex="1" parent="1">
          <mxGeometry x="617" y="8" width="80" height="30" as="geometry" />
        </mxCell>
        <mxCell id="vPRq9dus3xB_njKvOfY7-10" style="rounded=0;orthogonalLoop=1;jettySize=auto;html=1;exitX=0.5;exitY=1;exitDx=0;exitDy=0;entryX=0.5;entryY=0;entryDx=0;entryDy=0;endArrow=none;endFill=0;fontSize=11;" edge="1" parent="1" source="vPRq9dus3xB_njKvOfY7-5" target="vPRq9dus3xB_njKvOfY7-1">
          <mxGeometry relative="1" as="geometry">
            <mxPoint x="607" y="138" as="targetPoint" />
          </mxGeometry>
        </mxCell>
        <mxCell id="vPRq9dus3xB_njKvOfY7-5" value="Título" style="ellipse;whiteSpace=wrap;html=1;fontSize=11;" vertex="1" parent="1">
          <mxGeometry x="527" y="18" width="80" height="30" as="geometry" />
        </mxCell>
        <mxCell id="vPRq9dus3xB_njKvOfY7-13" style="rounded=0;orthogonalLoop=1;jettySize=auto;html=1;exitX=0.5;exitY=1;exitDx=0;exitDy=0;entryX=0.5;entryY=0;entryDx=0;entryDy=0;endArrow=none;endFill=0;fontSize=11;" edge="1" parent="1" source="vPRq9dus3xB_njKvOfY7-6" target="vPRq9dus3xB_njKvOfY7-1">
          <mxGeometry relative="1" as="geometry">
            <mxPoint x="607" y="128" as="targetPoint" />
          </mxGeometry>
        </mxCell>
        <mxCell id="vPRq9dus3xB_njKvOfY7-6" value="Ano&lt;br&gt;publicação" style="ellipse;whiteSpace=wrap;html=1;fontSize=11;" vertex="1" parent="1">
          <mxGeometry x="747" y="50" width="83" height="38" as="geometry" />
        </mxCell>
        <mxCell id="vPRq9dus3xB_njKvOfY7-12" style="rounded=0;orthogonalLoop=1;jettySize=auto;html=1;exitX=0.5;exitY=1;exitDx=0;exitDy=0;entryX=0.5;entryY=0;entryDx=0;entryDy=0;endArrow=none;endFill=0;fontSize=11;" edge="1" parent="1" source="vPRq9dus3xB_njKvOfY7-7" target="vPRq9dus3xB_njKvOfY7-1">
          <mxGeometry relative="1" as="geometry" />
        </mxCell>
        <mxCell id="vPRq9dus3xB_njKvOfY7-7" value="Edição" style="ellipse;whiteSpace=wrap;html=1;shadow=0;fontSize=11;" vertex="1" parent="1">
          <mxGeometry x="687" y="28" width="80" height="30" as="geometry" />
        </mxCell>
        <mxCell id="vPRq9dus3xB_njKvOfY7-38" style="rounded=0;orthogonalLoop=1;jettySize=auto;html=1;exitX=1;exitY=0.5;exitDx=0;exitDy=0;entryX=0;entryY=0.5;entryDx=0;entryDy=0;endArrow=none;endFill=0;fontSize=11;" edge="1" parent="1" source="vPRq9dus3xB_njKvOfY7-15" target="vPRq9dus3xB_njKvOfY7-43">
          <mxGeometry relative="1" as="geometry">
            <mxPoint x="330" y="220" as="targetPoint" />
          </mxGeometry>
        </mxCell>
        <mxCell id="vPRq9dus3xB_njKvOfY7-15" value="Usuário" style="rounded=0;whiteSpace=wrap;html=1;shadow=0;fontSize=11;" vertex="1" parent="1">
          <mxGeometry x="30" y="130" width="120" height="60" as="geometry" />
        </mxCell>
        <mxCell id="vPRq9dus3xB_njKvOfY7-20" style="rounded=0;orthogonalLoop=1;jettySize=auto;html=1;exitX=0.5;exitY=1;exitDx=0;exitDy=0;entryX=0.5;entryY=0;entryDx=0;entryDy=0;endArrow=none;endFill=0;fontSize=11;" edge="1" parent="1" source="vPRq9dus3xB_njKvOfY7-16" target="vPRq9dus3xB_njKvOfY7-15">
          <mxGeometry relative="1" as="geometry" />
        </mxCell>
        <mxCell id="vPRq9dus3xB_njKvOfY7-16" value="&lt;u&gt;&lt;b&gt;CPF&lt;/b&gt;&lt;/u&gt;" style="ellipse;whiteSpace=wrap;html=1;fontSize=11;" vertex="1" parent="1">
          <mxGeometry x="-50" y="60" width="80" height="30" as="geometry" />
        </mxCell>
        <mxCell id="vPRq9dus3xB_njKvOfY7-22" style="rounded=0;orthogonalLoop=1;jettySize=auto;html=1;exitX=0.5;exitY=1;exitDx=0;exitDy=0;endArrow=none;endFill=0;fontSize=11;" edge="1" parent="1" source="vPRq9dus3xB_njKvOfY7-17">
          <mxGeometry relative="1" as="geometry">
            <mxPoint x="90" y="130" as="targetPoint" />
          </mxGeometry>
        </mxCell>
        <mxCell id="vPRq9dus3xB_njKvOfY7-17" value="Endereço" style="ellipse;whiteSpace=wrap;html=1;fontSize=11;" vertex="1" parent="1">
          <mxGeometry x="110" y="20" width="80" height="30" as="geometry" />
        </mxCell>
        <mxCell id="vPRq9dus3xB_njKvOfY7-21" style="rounded=0;orthogonalLoop=1;jettySize=auto;html=1;exitX=0.5;exitY=1;exitDx=0;exitDy=0;entryX=0.5;entryY=0;entryDx=0;entryDy=0;endArrow=none;endFill=0;fontSize=11;" edge="1" parent="1" source="vPRq9dus3xB_njKvOfY7-18" target="vPRq9dus3xB_njKvOfY7-15">
          <mxGeometry relative="1" as="geometry" />
        </mxCell>
        <mxCell id="vPRq9dus3xB_njKvOfY7-18" value="Nome" style="ellipse;whiteSpace=wrap;html=1;fontSize=11;" vertex="1" parent="1">
          <mxGeometry x="10" y="20" width="80" height="30" as="geometry" />
        </mxCell>
        <mxCell id="vPRq9dus3xB_njKvOfY7-23" style="rounded=0;orthogonalLoop=1;jettySize=auto;html=1;exitX=0.5;exitY=1;exitDx=0;exitDy=0;entryX=0.5;entryY=0;entryDx=0;entryDy=0;endArrow=none;endFill=0;fontSize=11;" edge="1" parent="1" source="vPRq9dus3xB_njKvOfY7-19" target="vPRq9dus3xB_njKvOfY7-15">
          <mxGeometry relative="1" as="geometry" />
        </mxCell>
        <mxCell id="vPRq9dus3xB_njKvOfY7-19" value="Telefone" style="ellipse;whiteSpace=wrap;html=1;shadow=0;fontSize=11;" vertex="1" parent="1">
          <mxGeometry x="180" y="60" width="80" height="30" as="geometry" />
        </mxCell>
        <mxCell id="vPRq9dus3xB_njKvOfY7-39" style="rounded=0;orthogonalLoop=1;jettySize=auto;html=1;exitX=0.5;exitY=0;exitDx=0;exitDy=0;entryX=0.5;entryY=1;entryDx=0;entryDy=0;endArrow=none;endFill=0;fontSize=11;" edge="1" parent="1" source="vPRq9dus3xB_njKvOfY7-24" target="vPRq9dus3xB_njKvOfY7-43">
          <mxGeometry relative="1" as="geometry">
            <mxPoint x="370" y="260" as="targetPoint" />
          </mxGeometry>
        </mxCell>
        <mxCell id="vPRq9dus3xB_njKvOfY7-24" value="Multa" style="rounded=0;whiteSpace=wrap;html=1;shadow=0;fontSize=11;" vertex="1" parent="1">
          <mxGeometry x="310" y="241" width="120" height="60" as="geometry" />
        </mxCell>
        <mxCell id="vPRq9dus3xB_njKvOfY7-34" style="rounded=0;orthogonalLoop=1;jettySize=auto;html=1;exitX=0.5;exitY=0;exitDx=0;exitDy=0;entryX=0.5;entryY=1;entryDx=0;entryDy=0;strokeColor=default;flowAnimation=0;shadow=0;endArrow=none;endFill=0;fontSize=11;" edge="1" parent="1" source="vPRq9dus3xB_njKvOfY7-25" target="vPRq9dus3xB_njKvOfY7-24">
          <mxGeometry relative="1" as="geometry" />
        </mxCell>
        <mxCell id="vPRq9dus3xB_njKvOfY7-25" value="&lt;u&gt;&lt;b&gt;ID&lt;/b&gt;&lt;/u&gt;&lt;div&gt;&lt;u&gt;&lt;b&gt;multa&lt;/b&gt;&lt;/u&gt;&lt;/div&gt;" style="ellipse;whiteSpace=wrap;html=1;fontSize=11;" vertex="1" parent="1">
          <mxGeometry x="230" y="341" width="90" height="39" as="geometry" />
        </mxCell>
        <mxCell id="vPRq9dus3xB_njKvOfY7-36" style="rounded=0;orthogonalLoop=1;jettySize=auto;html=1;exitX=0.5;exitY=0;exitDx=0;exitDy=0;entryX=0.5;entryY=1;entryDx=0;entryDy=0;strokeColor=default;flowAnimation=0;shadow=0;endArrow=none;endFill=0;fontSize=11;" edge="1" parent="1" source="vPRq9dus3xB_njKvOfY7-26" target="vPRq9dus3xB_njKvOfY7-24">
          <mxGeometry relative="1" as="geometry" />
        </mxCell>
        <mxCell id="vPRq9dus3xB_njKvOfY7-26" value="Data de pagamento" style="ellipse;whiteSpace=wrap;html=1;fontSize=11;" vertex="1" parent="1">
          <mxGeometry x="415" y="341" width="90" height="40" as="geometry" />
        </mxCell>
        <mxCell id="vPRq9dus3xB_njKvOfY7-33" style="rounded=0;orthogonalLoop=1;jettySize=auto;html=1;exitX=0.5;exitY=0;exitDx=0;exitDy=0;entryX=0.5;entryY=1;entryDx=0;entryDy=0;strokeColor=default;flowAnimation=0;shadow=0;endArrow=none;endFill=0;fontSize=11;" edge="1" parent="1" source="vPRq9dus3xB_njKvOfY7-27" target="vPRq9dus3xB_njKvOfY7-24">
          <mxGeometry relative="1" as="geometry" />
        </mxCell>
        <mxCell id="vPRq9dus3xB_njKvOfY7-27" value="Valor" style="ellipse;whiteSpace=wrap;html=1;fontSize=11;" vertex="1" parent="1">
          <mxGeometry x="330" y="361" width="80" height="30" as="geometry" />
        </mxCell>
        <mxCell id="vPRq9dus3xB_njKvOfY7-40" value="1:N" style="text;html=1;align=center;verticalAlign=middle;resizable=0;points=[];autosize=1;strokeColor=none;fillColor=none;fontSize=11;" vertex="1" parent="1">
          <mxGeometry x="150" y="160" width="40" height="30" as="geometry" />
        </mxCell>
        <mxCell id="vPRq9dus3xB_njKvOfY7-41" value="N:1" style="text;html=1;align=center;verticalAlign=middle;resizable=0;points=[];autosize=1;strokeColor=none;fillColor=none;fontSize=11;" vertex="1" parent="1">
          <mxGeometry x="537" y="160" width="40" height="30" as="geometry" />
        </mxCell>
        <mxCell id="vPRq9dus3xB_njKvOfY7-42" value="0..1:1" style="text;html=1;align=center;verticalAlign=middle;resizable=0;points=[];autosize=1;strokeColor=none;fillColor=none;fontSize=11;" vertex="1" parent="1">
          <mxGeometry x="372" y="211" width="50" height="30" as="geometry" />
        </mxCell>
        <mxCell id="vPRq9dus3xB_njKvOfY7-43" value="Empréstimo" style="rounded=0;whiteSpace=wrap;html=1;shadow=0;fontSize=11;" vertex="1" parent="1">
          <mxGeometry x="310" y="103" width="120" height="60" as="geometry" />
        </mxCell>
        <mxCell id="vPRq9dus3xB_njKvOfY7-50" style="rounded=0;orthogonalLoop=1;jettySize=auto;html=1;exitX=0.5;exitY=1;exitDx=0;exitDy=0;entryX=0.5;entryY=0;entryDx=0;entryDy=0;endArrow=none;endFill=0;fontSize=11;" edge="1" parent="1" source="vPRq9dus3xB_njKvOfY7-45" target="vPRq9dus3xB_njKvOfY7-43">
          <mxGeometry relative="1" as="geometry">
            <mxPoint x="370" y="100" as="targetPoint" />
          </mxGeometry>
        </mxCell>
        <mxCell id="vPRq9dus3xB_njKvOfY7-45" value="&lt;u&gt;&lt;b&gt;ID&lt;/b&gt;&lt;/u&gt;&lt;div&gt;&lt;u&gt;&lt;b&gt;empréstimo&lt;/b&gt;&lt;/u&gt;&lt;/div&gt;" style="ellipse;whiteSpace=wrap;html=1;fontSize=11;" vertex="1" parent="1">
          <mxGeometry x="200" y="-41" width="90" height="42" as="geometry" />
        </mxCell>
        <mxCell id="vPRq9dus3xB_njKvOfY7-49" style="rounded=0;orthogonalLoop=1;jettySize=auto;html=1;exitX=0.5;exitY=1;exitDx=0;exitDy=0;entryX=0.5;entryY=0;entryDx=0;entryDy=0;endArrow=none;endFill=0;fontSize=11;" edge="1" parent="1" source="vPRq9dus3xB_njKvOfY7-46" target="vPRq9dus3xB_njKvOfY7-43">
          <mxGeometry relative="1" as="geometry" />
        </mxCell>
        <mxCell id="vPRq9dus3xB_njKvOfY7-46" value="&lt;font&gt;Data devolução&lt;/font&gt;&lt;div&gt;&lt;font&gt;real&lt;/font&gt;&lt;/div&gt;" style="ellipse;whiteSpace=wrap;html=1;shadow=0;fontSize=11;" vertex="1" parent="1">
          <mxGeometry x="467" y="-50" width="93" height="50" as="geometry" />
        </mxCell>
        <mxCell id="vPRq9dus3xB_njKvOfY7-55" style="rounded=0;orthogonalLoop=1;jettySize=auto;html=1;exitX=0.5;exitY=1;exitDx=0;exitDy=0;endArrow=none;endFill=0;entryX=0.5;entryY=0;entryDx=0;entryDy=0;fontSize=11;" edge="1" parent="1" source="vPRq9dus3xB_njKvOfY7-52" target="vPRq9dus3xB_njKvOfY7-43">
          <mxGeometry relative="1" as="geometry">
            <mxPoint x="370" y="100" as="targetPoint" />
          </mxGeometry>
        </mxCell>
        <mxCell id="vPRq9dus3xB_njKvOfY7-52" value="&lt;font&gt;Data devolução&lt;/font&gt;&lt;div&gt;&lt;font&gt;prevista&lt;/font&gt;&lt;/div&gt;" style="ellipse;whiteSpace=wrap;html=1;fontSize=11;" vertex="1" parent="1">
          <mxGeometry x="377" y="-74" width="90" height="42" as="geometry" />
        </mxCell>
        <mxCell id="vPRq9dus3xB_njKvOfY7-54" style="rounded=0;orthogonalLoop=1;jettySize=auto;html=1;exitX=0.5;exitY=1;exitDx=0;exitDy=0;endArrow=none;endFill=0;entryX=0.5;entryY=0;entryDx=0;entryDy=0;fontSize=11;" edge="1" parent="1" source="vPRq9dus3xB_njKvOfY7-53" target="vPRq9dus3xB_njKvOfY7-43">
          <mxGeometry relative="1" as="geometry">
            <mxPoint x="370" y="100" as="targetPoint" />
          </mxGeometry>
        </mxCell>
        <mxCell id="vPRq9dus3xB_njKvOfY7-53" value="Data empréstimo" style="ellipse;whiteSpace=wrap;html=1;fontSize=11;" vertex="1" parent="1">
          <mxGeometry x="282" y="-74" width="90" height="42" as="geometry" />
        </mxCell>
      </root>
    </mxGraphModel>
  </diagram>
</mxfile>
